<mxfile host="app.diagrams.net" modified="2023-10-07T16:24:28.041Z" agent="Mozilla/5.0 (Windows NT 10.0; Win64; x64) AppleWebKit/537.36 (KHTML, like Gecko) Chrome/117.0.0.0 Safari/537.36 Edg/117.0.2045.47" etag="elYIxOcka4fa8f2IVkMH" version="22.0.4" type="device">
  <diagram name="Page-1" id="H2PruZtGtYPxvJicr6uw">
    <mxGraphModel dx="1062" dy="592" grid="1" gridSize="10" guides="1" tooltips="1" connect="1" arrows="1" fold="1" page="1" pageScale="1" pageWidth="850" pageHeight="1100" math="0" shadow="0">
      <root>
        <mxCell id="0" />
        <mxCell id="1" parent="0" />
        <mxCell id="XCN4-78OCtRXgBY3HN2q-1" value="Администратор" style="shape=umlActor;verticalLabelPosition=bottom;verticalAlign=top;html=1;" vertex="1" parent="1">
          <mxGeometry x="230" y="220" width="30" height="60" as="geometry" />
        </mxCell>
        <mxCell id="XCN4-78OCtRXgBY3HN2q-2" value="Оформление заказа" style="ellipse;whiteSpace=wrap;html=1;" vertex="1" parent="1">
          <mxGeometry x="350" y="180" width="150" height="70" as="geometry" />
        </mxCell>
        <mxCell id="XCN4-78OCtRXgBY3HN2q-3" value="Клиент" style="shape=umlActor;verticalLabelPosition=bottom;verticalAlign=top;html=1;" vertex="1" parent="1">
          <mxGeometry x="230" y="90" width="30" height="60" as="geometry" />
        </mxCell>
        <mxCell id="XCN4-78OCtRXgBY3HN2q-4" value="Создание лэйаута или выбор существующего" style="ellipse;whiteSpace=wrap;html=1;" vertex="1" parent="1">
          <mxGeometry x="340" width="150" height="70" as="geometry" />
        </mxCell>
        <mxCell id="XCN4-78OCtRXgBY3HN2q-5" value="Изменение лэйаута (конфигурации)" style="ellipse;whiteSpace=wrap;html=1;" vertex="1" parent="1">
          <mxGeometry x="340" y="80" width="150" height="70" as="geometry" />
        </mxCell>
        <mxCell id="XCN4-78OCtRXgBY3HN2q-6" value="extend" style="html=1;verticalAlign=bottom;endArrow=open;dashed=1;endSize=8;curved=0;rounded=0;exitX=0;exitY=0.5;exitDx=0;exitDy=0;entryX=1;entryY=0.5;entryDx=0;entryDy=0;" edge="1" parent="1" source="XCN4-78OCtRXgBY3HN2q-7" target="XCN4-78OCtRXgBY3HN2q-21">
          <mxGeometry relative="1" as="geometry">
            <mxPoint x="630" y="145" as="sourcePoint" />
            <mxPoint x="620" y="150" as="targetPoint" />
          </mxGeometry>
        </mxCell>
        <mxCell id="XCN4-78OCtRXgBY3HN2q-7" value="Выбор материала или цвета стен" style="ellipse;whiteSpace=wrap;html=1;" vertex="1" parent="1">
          <mxGeometry x="810" y="130" width="150" height="70" as="geometry" />
        </mxCell>
        <mxCell id="XCN4-78OCtRXgBY3HN2q-8" value="Выбор инструментов &lt;br&gt;и их расстановка в конфигурации" style="ellipse;whiteSpace=wrap;html=1;" vertex="1" parent="1">
          <mxGeometry x="580" y="50" width="150" height="70" as="geometry" />
        </mxCell>
        <mxCell id="XCN4-78OCtRXgBY3HN2q-11" value="" style="endArrow=none;html=1;rounded=0;entryX=0;entryY=0.5;entryDx=0;entryDy=0;" edge="1" parent="1" target="XCN4-78OCtRXgBY3HN2q-5">
          <mxGeometry width="50" height="50" relative="1" as="geometry">
            <mxPoint x="270" y="120" as="sourcePoint" />
            <mxPoint x="350" y="205" as="targetPoint" />
          </mxGeometry>
        </mxCell>
        <mxCell id="XCN4-78OCtRXgBY3HN2q-12" value="" style="endArrow=none;html=1;rounded=0;entryX=0;entryY=0.5;entryDx=0;entryDy=0;" edge="1" parent="1" target="XCN4-78OCtRXgBY3HN2q-4">
          <mxGeometry width="50" height="50" relative="1" as="geometry">
            <mxPoint x="270" y="100" as="sourcePoint" />
            <mxPoint x="350" y="125" as="targetPoint" />
          </mxGeometry>
        </mxCell>
        <mxCell id="XCN4-78OCtRXgBY3HN2q-13" value="" style="endArrow=none;html=1;rounded=0;entryX=0;entryY=0.5;entryDx=0;entryDy=0;" edge="1" parent="1" target="XCN4-78OCtRXgBY3HN2q-2">
          <mxGeometry width="50" height="50" relative="1" as="geometry">
            <mxPoint x="280" y="170" as="sourcePoint" />
            <mxPoint x="350" y="205" as="targetPoint" />
          </mxGeometry>
        </mxCell>
        <mxCell id="XCN4-78OCtRXgBY3HN2q-15" value="" style="endArrow=none;html=1;rounded=0;entryX=0;entryY=0.5;entryDx=0;entryDy=0;" edge="1" parent="1" target="XCN4-78OCtRXgBY3HN2q-2">
          <mxGeometry width="50" height="50" relative="1" as="geometry">
            <mxPoint x="280" y="250" as="sourcePoint" />
            <mxPoint x="350" y="285" as="targetPoint" />
          </mxGeometry>
        </mxCell>
        <mxCell id="XCN4-78OCtRXgBY3HN2q-16" value="Изменение объектов, моделей, коллекций" style="ellipse;whiteSpace=wrap;html=1;" vertex="1" parent="1">
          <mxGeometry x="350" y="270" width="150" height="70" as="geometry" />
        </mxCell>
        <mxCell id="XCN4-78OCtRXgBY3HN2q-17" value="" style="endArrow=none;html=1;rounded=0;entryX=0;entryY=0.5;entryDx=0;entryDy=0;" edge="1" parent="1" target="XCN4-78OCtRXgBY3HN2q-16">
          <mxGeometry width="50" height="50" relative="1" as="geometry">
            <mxPoint x="290" y="280" as="sourcePoint" />
            <mxPoint x="350" y="285" as="targetPoint" />
          </mxGeometry>
        </mxCell>
        <mxCell id="XCN4-78OCtRXgBY3HN2q-20" value="include" style="html=1;verticalAlign=bottom;endArrow=open;dashed=1;endSize=8;curved=0;rounded=0;exitX=1;exitY=0.5;exitDx=0;exitDy=0;entryX=0;entryY=0.5;entryDx=0;entryDy=0;" edge="1" parent="1" source="XCN4-78OCtRXgBY3HN2q-5" target="XCN4-78OCtRXgBY3HN2q-8">
          <mxGeometry x="-0.005" relative="1" as="geometry">
            <mxPoint x="730" y="125" as="sourcePoint" />
            <mxPoint x="630" y="160" as="targetPoint" />
            <mxPoint as="offset" />
          </mxGeometry>
        </mxCell>
        <mxCell id="XCN4-78OCtRXgBY3HN2q-21" value="&lt;font style=&quot;font-size: 9px;&quot;&gt;Добавление/удаление новых &lt;br&gt;стен, изменение положения существующих&lt;/font&gt;" style="ellipse;whiteSpace=wrap;html=1;" vertex="1" parent="1">
          <mxGeometry x="580" y="130" width="150" height="70" as="geometry" />
        </mxCell>
        <mxCell id="XCN4-78OCtRXgBY3HN2q-22" value="include" style="html=1;verticalAlign=bottom;endArrow=open;dashed=1;endSize=8;curved=0;rounded=0;exitX=1;exitY=0.5;exitDx=0;exitDy=0;entryX=0;entryY=0.5;entryDx=0;entryDy=0;" edge="1" parent="1" source="XCN4-78OCtRXgBY3HN2q-5" target="XCN4-78OCtRXgBY3HN2q-21">
          <mxGeometry x="-0.005" relative="1" as="geometry">
            <mxPoint x="500" y="125" as="sourcePoint" />
            <mxPoint x="550" y="65" as="targetPoint" />
            <mxPoint as="offset" />
          </mxGeometry>
        </mxCell>
      </root>
    </mxGraphModel>
  </diagram>
</mxfile>
